# AST/ASF file generated using VICON BodyLanguage
# -----------------------------------------------
:version 1.10
:name VICON
:units
  mass 1.0
  length 0.45
  angle deg
:documentation
   .ast/.asf automatically generated from VICON data using
   VICON BodyBuilder and BodyLanguage model FoxedUp or BRILLIANT.MOD
:root
   order TX TY TZ RX RY RZ
   axis XYZ
   position 0 0 0  
   orientation 0 0 0 
:bonedata
  begin
     id 1 
     name lhipjoint
     direction 0.660183 -0.676772 0.325788 
     length 2.75133 
     axis 0 0 0  XYZ
  end
  begin
     id 2 
     name lfemur
     direction 0.34202 -0.939693 0  
     length 7.70317  
     axis 0 0 20  XYZ
    dof rx ry rz
    limits (-160.0 20.0)
           (-70.0 70.0)
           (-60.0 70.0)
  end
  begin
     id 3 
     name ltibia
     direction 0.342105 -0.939662 0   
     length 7.18701   
     axis 0 0 20   XYZ
    dof rx
    limits (-10.0 170.0)
  end
  begin
     id 4 
     name lfoot
     direction 0.14163 -0.389126 0.910232   
     length 2.41719   
     axis -90 7.62852e-016 20   XYZ
    dof rx rz
    limits (-45.0 90.0)
           (-70.0 20.0)
  end
  begin
     id 5 
     name ltoes
     direction 1.53533e-011 -4.21926e-011 1   
     length 1.18611   
     axis -90 7.62852e-016 20   XYZ
    dof rx
    limits (-90.0 20.0)
  end
  begin
     id 6 
     name rhipjoint
     direction -0.6658 -0.67229 0.323631   
     length 2.76968  
     axis 0 0 0  XYZ 
  end
  begin
     id 7 
     name rfemur
     direction -0.34202 -0.939693 0   
     length 7.92547   
     axis 0 0 -20   XYZ
    dof rx ry rz
    limits (-160.0 20.0)
           (-70.0 70.0)
           (-70.0 60.0)
  end
  begin
     id 8 
     name rtibia
     direction -0.342022 -0.939692 0   
     length 7.22641   
     axis 0 0 -20   XYZ
    dof rx
    limits (-10.0 170.0)
 end
 begin
     id 9 
     name rfoot
     direction -0.105675 -0.29034 0.951071   
     length 2.48149  
     axis -90 -7.62852e-016 -20   XYZ
    dof rx rz
    limits (-45.0 90.0)
           (-20.0 70.0)
  end
  begin
     id 10 
     name rtoes
     direction -1.5349e-011 -4.21859e-011 1   
     length 1.23343   
     axis -90 -7.62852e-016 -20   XYZ
    dof rx
    limits (-90.0 20.0)
  end
  begin
     id 11 
     name lowerback
     direction 0.0104173 0.993624 -0.112266   
     length 2.00527   
     axis 0 0 0   XYZ
    dof rx ry rz
    limits (-20.0 45.0)
           (-30.0 30.0)
           (-30.0 30.0)
  end
  begin
     id 12 
     name upperback
     direction 0.00733149 0.999856 -0.0152913   
     length 2.01385   
     axis 0 0 0   XYZ
    dof rx ry rz
    limits (-20.0 45.0)
           (-30.0 30.0)
           (-30.0 30.0)
  end
  begin
     id 13 
     name thorax
     direction 0.0026304 0.999318 0.036841   
     length 2.03734   
     axis 0 0 0   XYZ
    dof rx ry rz
    limits (-20.0 45.0)
           (-30.0 30.0)
           (-30.0 30.0)
  end
  begin
     id 14 
     name lowerneck
     direction 0.0293154 0.998757 0.0403082   
     length 1.65303   
     axis 0 0 0   XYZ
    dof rx ry rz
    limits (-20.0 45.0)
           (-30.0 30.0)
           (-30.0 30.0)
  end
  begin
     id 15 
     name upperneck
     direction -0.0376619 0.998184 -0.0470083   
     length 1.60926   
     axis 0 0 0   XYZ
    dof rx ry rz
    limits (-20.0 45.0)
           (-30.0 30.0)
           (-30.0 30.0)
  end
  begin
     id 16
     name head
     direction -0.0170133 0.999635 -0.0209778  
     length 1.73625  
     axis 0 0 0   XYZ
    dof rx ry rz
    limits (-20.0 45.0)
           (-30.0 30.0)
           (-30.0 30.0)
  end
  begin
     id 17 
     name lclavicle
     direction 0.919857 0.39181 -0.0186333  
     length 3.75313  
     axis 0 0 0   XYZ
    dof ry rz
    limits (-20.0 10.0)
           (0.0 20.0)
  end
  begin
     id 18 
     name lhumerus
     direction 1 -4.48988e-011 1.44029e-027   
     length 5.49313   
     axis 180 -30 -90   XYZ
    dof rx ry rz
    limits (-60.0 90.0)
           (-90.0 90.0)
           (-90.0 90.0)
  end
  begin
     id 19
     name lradius
     direction 1 -4.48924e-011 7.46281e-027   
     length 3.29037   
     axis 180 -30 -90   XYZ
    dof rx
    limits (-10.0 170.0)
  end
  begin
     id 20
     name lwrist
     direction 1 -4.48955e-011 2.19879e-026   
     length 1.64519   
     axis -1.34358e-014 90 90   XYZ
    dof ry
    limits (-180.0 0.0)
 end
  begin
     id 21 
     name lhand
     direction 1 -4.48978e-011 4.39747e-026   
     length 0.729656   
     axis -2.80598e-014 90 90   XYZ
    dof rx rz
    limits (-90.0 90.0)
           (-45.0 45.0)
  end
  begin
     id 22 
     name lfingers
     direction 1 -4.49071e-011 8.79411e-026   
     length 0.588268   
     axis -5.61193e-014 90 90   XYZ
    dof rx
    limits (0.0 90.0)
  end
  begin
     id 23
     name lthumb
     direction 0.707107 -6.34817e-011 0.707107   
     length 0.844638   
     axis -90 45 -9.86923e-015   XYZ
    dof rx rz
    limits (-45.0 45.0)
           (-45.0 45.0)
  end
  begin
     id 24 
     name rclavicle
     direction -0.919898 0.388279 0.0550233   
     length 3.7171  
     axis 0 0 0   XYZ 
    dof ry rz
    limits (-10.0 20.0)
           (-20.0 0.0)
  end
  begin
     id 25 
     name rhumerus
     direction -1 -4.48968e-011 9.98372e-028  
     length 5.23684   
     axis 180 30 90   XYZ
    dof rx ry rz
    limits (-90.0 60.0)
           (-90.0 90.0)
           (-90.0 90.0)
  end
  begin
     id 26 
     name rradius
     direction -1 -4.48956e-011 1.01023e-026   
     length 3.38251   
     axis 180 30 90   XYZ
    dof rx
    limits (-10.0 170.0)
  end
  begin
     id 27 
     name rwrist
     direction -1 -4.4892e-011 2.19886e-026   
     length 1.69126   
     axis -1.34358e-014 -90 -90   XYZ
    dof ry
    limits (-180.0 0.0)
  end
  begin
     id 28
     name rhand
     direction -1 -4.49024e-011 4.39727e-026   
     length 0.691454   
     axis -2.80598e-014 -90 -90   XYZ
    dof rx rz
    limits (-90.0 90.0)
           (-45.0 45.0)
  end
  begin
     id 29
     name rfingers
     direction -1 -4.49097e-011 8.79388e-026   
     length 0.557468   
     axis -5.61193e-014 -90 -90   XYZ
    dof rx
    limits (0.0 90.0)
  end
  begin
     id 30
     name rthumb
     direction -0.707107 -6.34938e-011 0.707107   
     length 0.800416   
     axis -90 -45 9.86923e-015   XYZ
    dof rx rz
    limits (-45.0 45.0)
           (-45.0 45.0)
  end
:hierarchy
  begin
    root lhipjoint rhipjoint lowerback
    lhipjoint lfemur
    lfemur ltibia
    ltibia lfoot
    lfoot ltoes
    rhipjoint rfemur
    rfemur rtibia
    rtibia rfoot
    rfoot rtoes
    lowerback upperback
    upperback thorax
    thorax lowerneck lclavicle rclavicle
    lowerneck upperneck
    upperneck head
    lclavicle lhumerus
    lhumerus lradius
    lradius lwrist
    lwrist lhand lthumb
    lhand lfingers
    rclavicle rhumerus
    rhumerus rradius
    rradius rwrist
    rwrist rhand rthumb
    rhand rfingers
  end

#!OML:ASF H:\BabyWalks\Project 1\Capture day 1\Session 1\baby.ASF
:FULLY-SPECIFIED
:DEGREES
248
root -25.2835 17.4942 -2.39963 -16.7605 78.2947 -27.1956
lowerback 18.1482 0.95695 -1.47791
upperback 4.93645 1.25947 0.620108
thorax -4.90071 0.723633 1.21299
lowerneck 2.69033 2.99239 5.18298
upperneck -14.9982 3.97581 -5.4042
head -4.70852 2.11161 -2.72447
rclavicle -1.23246e-014 3.10104e-014
rhumerus -52.1588 12.7763 -85.372
rradius 42.2343
rwrist -0.0787825
rhand -9.45811 -15.465
rfingers 7.12502
rthumb 16.5054 -44.7829
lclavicle -1.23246e-014 3.10104e-014
lhumerus -63.135 -12.7761 85.8449
lradius 52.2526
lwrist 4.80627
lhand 19.0872 17.1451
lfingers 7.12502
lthumb 43.6838 41.1449
rfemur -7.94424 15.9909 23.1739
rtibia 35.2273
rfoot -13.2218 20.5594
rtoes -4.1113
lfemur -29.8618 0.363755 -11.4786
ltibia 40.9019
lfoot -23.4505 -11.806
ltoes 7.86645
249
root -25.1715 17.4662 -2.3996 -15.0551 78.1339 -25.3438
lowerback 18.2323 1.06443 -1.90008
upperback 4.95718 1.29923 0.217221
thorax -4.92274 0.746252 1.01474
lowerneck 3.10774 2.91988 5.4451
upperneck -15.2852 3.96382 -5.03893
head -4.873 2.07143 -2.66935
rclavicle 3.18055e-015 -1.66979e-014
rhumerus -52.1507 12.0885 -85.5654
rradius 42.0591
rwrist 0.143221
rhand -10.4111 -15.9205
rfingers 7.12502
rthumb 15.5878 -45.3124
lclavicle 3.18055e-015 -1.66979e-014
lhumerus -62.2939 -13.5199 85.3494
lradius 51.7079
lwrist 4.62135
lhand 18.8099 16.8039
lfingers 7.12502
lthumb 43.4248 40.898
rfemur -8.86207 16.2922 22.6534
rtibia 37.5929
rfoot -12.5651 21.1539
rtoes -5.42278
lfemur -29.531 0.477068 -11.8696
ltibia 41.4159
lfoot -24.0107 -11.8672
ltoes 7.96325
250
root -25.0597 17.4388 -2.3968 -13.0335 78.0293 -23.2091
lowerback 18.2657 1.12902 -2.43418
upperback 4.99254 1.26724 -0.150669
thorax -4.90235 0.734715 0.933769
lowerneck 3.37652 2.89559 5.52466
upperneck -15.4463 4.00446 -4.64441
head -4.97555 2.06293 -2.5711
rclavicle 1.66979e-014 -5.56597e-015
rhumerus -52.1458 11.6877 -85.8139
rradius 41.965
rwrist 0.264774
rhand -11.4375 -16.435
rfingers 7.12502
rthumb 14.599 -45.9012
lclavicle 1.66979e-014 -5.56597e-015
lhumerus -61.2554 -14.056 84.7724
lradius 51.047
lwrist 4.26644
lhand 18.4957 16.426
lfingers 7.12502
lthumb 43.1312 40.6254
rfemur -9.88681 16.5735 22.0221
rtibia 39.9982
rfoot -12.0248 21.615
rtoes -6.67816
lfemur -29.186 0.586382 -12.3579
ltibia 41.813
lfoot -24.5337 -11.8422
ltoes 7.87411
251
root -24.9479 17.4138 -2.39218 -10.9303 77.9446 -21.0346
lowerback 18.2454 1.12369 -3.05844
upperback 5.05478 1.13696 -0.434364
thorax -4.82359 0.675238 1.01615
lowerneck 3.44004 2.9591 5.34441
upperneck -15.4671 4.13751 -4.22483
head -5.0013 2.1116 -2.41909
rclavicle -1.51076e-014 -1.59028e-014
rhumerus -52.0869 11.7191 -86.0987
rradius 41.9283
rwrist 0.308912
rhand -12.4671 -16.9642
rfingers 7.12502
rthumb 13.6069 -46.4995
lclavicle -1.51076e-014 -1.59028e-014
lhumerus -60.0246 -14.2083 84.0988
lradius 50.3217
lwrist 3.70341
lhand 18.1154 16.0406
lfingers 7.12502
lthumb 42.7755 40.3654
rfemur -10.9904 16.8218 21.341
rtibia 42.3646
rfoot -11.6987 21.9434
rtoes -7.84477
lfemur -28.8332 0.727208 -12.8853
ltibia 42.1081
lfoot -25.0335 -11.8706
ltoes 7.91565
252
root -24.8353 17.3924 -2.3855 -9.04097 77.9041 -19.0968
lowerback 18.1925 1.10337 -3.60434
upperback 5.11792 1.00538 -0.704338
thorax -4.72401 0.614163 1.06909
lowerneck 3.439 3.00822 5.1608
upperneck -15.3991 4.2452 -3.81512
head -4.9903 2.14834 -2.26537
rclavicle 2.38542e-015 0
rhumerus -52.0709 11.7965 -86.4354
rradius 41.9487
rwrist 0.373328
rhand -13.4302 -17.4539
rfingers 7.12502
rthumb 12.6785 -47.0491
lclavicle 2.38542e-015 0
lhumerus -58.6604 -14.3194 83.3165
lradius 49.586
lwrist 2.95876
lhand 17.6254 15.6627
lfingers 7.12502
lthumb 42.3169 40.1457
rfemur -12.0839 17.0057 20.6906
rtibia 44.5583
rfoot -11.6124 22.1118
rtoes -8.91845
lfemur -28.433 0.877186 -13.3882
ltibia 42.2491
lfoot -25.4477 -11.9653
ltoes 8.12981
253
root -24.7226 17.3751 -2.37788 -7.52883 77.8869 -17.5669
lowerback 18.1386 1.06782 -4.0152
upperback 5.15949 0.879345 -0.956301
thorax -4.64493 0.55499 1.06279
lowerneck 3.39845 3.03979 4.99483
upperneck -15.2446 4.32378 -3.42492
head -4.94678 2.17104 -2.11685
rclavicle -1.03368e-014 2.54444e-014
rhumerus -52.1112 11.8891 -86.8136
rradius 42.0145
rwrist 0.490716
rhand -14.2513 -17.8424
rfingers 7.12502
rthumb 11.8868 -47.485
lclavicle -1.03368e-014 2.54444e-014
lhumerus -57.2218 -14.3663 82.4267
lradius 48.8981
lwrist 2.04286
lhand 16.9548 15.3084
lfingers 7.12502
lthumb 41.6884 40.0019
rfemur -13.1896 17.1282 20.1148
rtibia 46.5891
rfoot -11.7797 22.1392
rtoes -9.84766
lfemur -28.0239 1.03499 -13.8108
ltibia 42.3116
lfoot -25.8196 -12.0767
ltoes 8.35959
254
root -24.6068 17.3813 -2.36986 -6.43706 77.9043 -16.4775
lowerback 18.091 1.00815 -4.30388
upperback 5.19284 0.745629 -1.1737
thorax -4.57644 0.491426 1.02523
lowerneck 3.32471 3.06331 4.84584
upperneck -15.0362 4.38417 -3.07258
head -4.88065 2.18661 -1.98049
rclavicle -1.90833e-014 1.43125e-014
rhumerus -52.1703 12.0099 -87.2008
rradius 42.112
rwrist 0.661479
rhand -14.8802 -18.0778
rfingers 7.12502
rthumb 11.2803 -47.7545
lclavicle -1.90833e-014 1.43125e-014
lhumerus -55.722 -14.2825 81.4439
lradius 48.3033
lwrist 0.974339
lhand 16.0233 14.9874
lfingers 7.12502
lthumb 40.814 39.9626
rfemur -14.2442 17.1775 19.631
rtibia 48.3632
rfoot -12.1581 22.0442
rtoes -10.6413
lfemur -27.5506 1.17971 -14.1489
ltibia 42.2483
lfoot -26.1465 -12.2087
ltoes 8.55987
255
root -24.4945 17.376 -2.36217 -5.74881 77.9572 -15.802
lowerback 18.0655 0.925546 -4.48175
upperback 5.21474 0.602114 -1.35194
thorax -4.53113 0.42275 0.968032
lowerneck 3.24529 3.07611 4.73154
upperneck -14.7968 4.42218 -2.78172
head -4.80264 2.19342 -1.86733
rclavicle -1.39149e-014 -4.77083e-015
rhumerus -52.2465 12.141 -87.5712
rradius 42.235
rwrist 0.872927
rhand -15.2796 -18.1245
rfingers 7.12502
rthumb 10.895 -47.8218
lclavicle -1.39149e-014 -4.77083e-015
lhumerus -54.2029 -14.0462 80.399
lradius 47.8381
lwrist -0.210329
lhand 14.7513 14.6706
lfingers 7.12502
lthumb 39.6175 40.0109
rfemur -15.3166 17.1529 19.2332
rtibia 49.957
rfoot -12.6997 21.8701
rtoes -11.2999
lfemur -27.1111 1.3004 -14.3917
ltibia 42.1501
lfoot -26.4281 -12.3975
ltoes 8.71035
256
root -24.3822 17.3756 -2.35441 -5.40954 78.0453 -15.4694
lowerback 18.0707 0.818522 -4.58451
upperback 5.23594 0.440744 -1.48486
thorax -4.50213 0.345161 0.919867
lowerneck 3.14791 3.08825 4.63593
upperneck -14.5333 4.45036 -2.55067
head -4.71265 2.19841 -1.77464
rclavicle 3.18055e-015 7.95139e-016
rhumerus -52.3201 12.2948 -87.9036
rradius 42.3736
rwrist 1.09737
rhand -15.4516 -17.9465
rfingers 7.12502
rthumb 10.7292 -47.6526
lclavicle 3.18055e-015 7.95139e-016
lhumerus -52.6895 -13.635 79.3289
lradius 47.5338
lwrist -1.43782
lhand 13.0901 14.3707
lfingers 7.12502
lthumb 38.051 40.1561
rfemur -16.3543 17.0711 18.9153
rtibia 51.3056
rfoot -13.2356 21.6864
rtoes -11.601
lfemur -26.619 1.37254 -14.5534
ltibia 41.9667
lfoot -26.6721 -12.5824
ltoes 8.81535
257
root -24.2711 17.3803 -2.3468 -5.29866 78.175 -15.3789
lowerback 18.1105 0.689677 -4.62984
upperback 5.2367 0.25906 -1.57976
thorax -4.51285 0.257822 0.88348
lowerneck 3.05358 3.0948 4.56609
upperneck -14.2537 4.46331 -2.38174
head -4.61665 2.19844 -1.70455
rclavicle -7.15625e-015 1.82882e-014
rhumerus -52.409 12.4483 -88.1868
rradius 42.5296
rwrist 1.29424
rhand -15.3822 -17.5615
rfingers 7.12502
rthumb 10.7961 -47.264
lclavicle -7.15625e-015 1.82882e-014
lhumerus -51.2307 -13.0772 78.2741
lradius 47.4123
lwrist -2.6385
lhand 11.0082 14.0623
lfingers 7.12502
lthumb 36.082 40.3587
rfemur -17.4071 16.9211 18.6438
rtibia 52.4455
rfoot -13.788 21.5143
rtoes -11.7379
lfemur -26.1371 1.37783 -14.6602
ltibia 41.7656
lfoot -26.9068 -12.7444
ltoes 8.86979
258
root -24.1608 17.3899 -2.33891 -5.40743 78.347 -15.5125
lowerback 18.1851 0.540713 -4.63526
upperback 5.22582 0.0571093 -1.63171
thorax -4.55396 0.160713 0.874403
lowerneck 2.95243 3.09694 4.51197
upperneck -13.9618 4.46265 -2.27004
head -4.51441 2.19443 -1.65383
rclavicle -2.06736e-014 -5.64548e-014
rhumerus -52.5003 12.6028 -88.4079
rradius 42.6955
rwrist 1.43165
rhand -15.0916 -16.9968
rfingers 7.12502
rthumb 11.0764 -46.6845
lclavicle -2.06736e-014 -5.64548e-014
lhumerus -49.8494 -12.3981 77.2774
lradius 47.4885
lwrist -3.72946
lhand 8.48874 13.7568
lfingers 7.12502
lthumb 33.6916 40.6085
rfemur -18.439 16.7142 18.421
rtibia 53.3105
rfoot -14.3116 21.3438
rtoes -11.8841
lfemur -25.6244 1.30987 -14.7159
ltibia 41.4778
lfoot -27.079 -12.8821
ltoes 8.89694
259
root -24.051 17.4052 -2.33023 -5.75778 78.5652 -15.8859
lowerback 18.305 0.374674 -4.59566
upperback 5.20064 -0.161061 -1.64457
thorax -4.63407 0.0560247 0.885131
lowerneck 2.85836 3.0887 4.46671
upperneck -13.6679 4.44312 -2.1989
head -4.41223 2.18296 -1.61646
rclavicle 2.46493e-014 6.36111e-015
rhumerus -52.604 12.7406 -88.5692
rradius 42.8661
rwrist 1.48713
rhand -14.5988 -16.3239
rfingers 7.12502
rthumb 11.5517 -45.9855
lclavicle 2.46493e-014 6.36111e-015
lhumerus -48.5769 -11.6462 76.3654
lradius 47.7809
lwrist -4.63028
lhand 5.58918 13.4625
lfingers 7.12502
lthumb 30.9318 40.8769
rfemur -19.4309 16.4594 18.2557
rtibia 53.8834
rfoot -14.7663 21.1827
rtoes -11.9961
lfemur -25.0874 1.16872 -14.7218
ltibia 41.113
lfoot -27.1932 -12.9941
ltoes 8.86331
260
root -23.9412 17.4252 -2.32006 -6.34059 78.8249 -16.4838
lowerback 18.4639 0.198715 -4.52381
upperback 5.16701 -0.387175 -1.61924
thorax -4.74384 -0.0522588 0.920697
lowerneck 2.78607 3.0697 4.4183
upperneck -13.0179 4.42541 -2.05062
head -4.67531 2.15902 -1.70377
rclavicle -1.82882e-014 -1.59028e-015
rhumerus -52.7136 12.8584 -88.6737
rradius 43.0332
rwrist 1.43953
rhand -13.9371 -15.6207
rfingers 7.12502
rthumb 12.1897 -45.2455
lclavicle -1.82882e-014 -1.59028e-015
lhumerus -47.4233 -10.8669 75.561
lradius 48.2901
lwrist -5.26969
lhand 2.39452 13.1859
lfingers 7.12502
lthumb 27.8818 41.1365
rfemur -20.3639 16.1681 18.1507
rtibia 54.1579
rfoot -15.1845 20.9943
rtoes -12.1739
lfemur -24.5094 0.955746 -14.6804
ltibia 40.6723
lfoot -27.2493 -13.0765
ltoes 8.76656
